<svg width="1920" height="1080" viewBox="0 0 1920 1080" fill="none" xmlns="http://www.w3.org/2000/svg">
    <circle cx="1919.5" cy="0.5" r="359.5" stroke="#FB6542" stroke-width="150"/>
    <circle cx="247" cy="1080" r="287" stroke="#FB6542" stroke-width="100"/>
    <path d="M1427.38 -28.4177C1405.84 8.39745 1343.9 9.52458 1358.72 103.405C1375.37 208.622 1278.95 253.846 1213.09 227.783C1147.22 201.72 1151.85 105.085 1026.68 102.113C898.717 99.0773 871.796 -22.4644 871.796 -22.4644" stroke="#FB6542" stroke-width="2" stroke-miterlimit="10"/>
    <path d="M1330.94 -56.7208C1330.94 -10.0773 1294.76 23.4818 1307.75 103.287C1320.74 183.092 1262.36 192.424 1239.1 183.092C1190.85 163.733 1181.58 60.2317 1103.66 53.5014C1045.08 48.4696 966.345 88.5077 924.627 -2.35501" stroke="#FB6542" stroke-width="2" stroke-miterlimit="10"/>
    <path d="M1291.98 -20.9556C1300.13 -7.87999 1278.29 39.8578 1247.46 46.3919C1223.11 51.5519 1182.52 -9.78073 1099.04 27.4208C1069.35 40.6644 949.694 44.5851 973.814 -28.4357" stroke="#FB6542" stroke-width="2" stroke-miterlimit="10"/>
    <path d="M1250.24 154.798C1264.07 154.798 1275.28 138.292 1275.28 117.931C1275.28 97.5699 1264.07 81.0638 1250.24 81.0638C1236.41 81.0638 1225.2 97.5699 1225.2 117.931C1225.2 138.292 1236.41 154.798 1250.24 154.798Z" stroke="#FB6542" stroke-width="2" stroke-miterlimit="10"/>
</svg>

